# Blender v2.90.1 OBJ File: 'stuff.blend'
# www.blender.org
o Desk_Cube.003
v -0.360296 0.557703 0.824250
v -0.360296 0.597130 0.824250
v -0.360296 0.557703 -0.824250
v -0.360296 0.597130 -0.824250
v 0.360296 0.557703 0.824250
v 0.360296 0.597130 0.824250
v 0.360296 0.557703 -0.824250
v 0.360296 0.597130 -0.824250
v -0.360296 0.557703 0.772668
v -0.360296 0.597130 0.772668
v 0.360296 0.557703 0.772668
v 0.360296 0.597130 0.772668
v -0.360296 0.597130 -0.773802
v 0.360296 0.557703 -0.773802
v -0.360296 0.557703 -0.773802
v 0.360296 0.597130 -0.773802
v 0.315947 0.557703 -0.824250
v 0.315947 0.597130 -0.824250
v 0.315947 0.557703 0.824250
v 0.315947 0.597130 0.824250
v 0.315947 0.597130 0.772668
v 0.315947 0.557703 0.772668
v 0.315947 0.557703 -0.773802
v 0.315947 0.597130 -0.773802
v -0.310761 0.557703 -0.824250
v -0.310761 0.597130 0.824250
v -0.310761 0.557703 0.772668
v -0.310761 0.557703 -0.773802
v -0.310761 0.597130 -0.824250
v -0.310761 0.557703 0.824250
v -0.310761 0.597130 0.772668
v -0.310761 0.597130 -0.773802
v -0.360296 -0.000428 0.772668
v -0.360296 -0.000428 0.824250
v -0.310761 -0.000428 -0.824250
v -0.360296 -0.000428 -0.824250
v 0.360296 -0.000428 -0.773802
v 0.360296 -0.000428 -0.824250
v 0.315947 -0.000428 0.824250
v 0.360296 -0.000428 0.824250
v 0.360296 -0.000428 0.772668
v -0.310761 -0.000428 0.772668
v -0.360296 -0.000428 -0.773802
v -0.310761 -0.000428 -0.773802
v 0.315947 -0.000428 -0.824250
v 0.315947 -0.000428 0.772668
v 0.315947 -0.000428 -0.773802
v -0.310761 -0.000428 0.824250
vt 0.375000 0.242349
vt 0.625000 0.242350
vt 0.625000 0.250000
vt 0.375000 0.250000
vt 0.375000 0.484614
vt 0.625000 0.484614
vt 0.625000 0.500000
vt 0.375000 0.500000
vt 0.375000 0.742177
vt 0.625000 0.742177
vt 0.625000 0.750000
vt 0.375000 0.750000
vt 0.375000 0.982814
vt 0.625000 0.982814
vt 0.625000 1.000000
vt 0.375000 1.000000
vt 0.142186 0.500000
vt 0.142186 0.507650
vt 0.142186 0.507650
vt 0.142186 0.500000
vt 0.857814 0.742177
vt 0.875000 0.742177
vt 0.875000 0.750000
vt 0.857814 0.750000
vt 0.857814 0.507650
vt 0.875000 0.507650
vt 0.359614 0.507650
vt 0.375000 0.507650
vt 0.359614 0.742177
vt 0.625000 0.507650
vt 0.375000 0.000000
vt 0.625000 0.000000
vt 0.625000 0.007822
vt 0.375000 0.007822
vt 0.125000 0.507650
vt 0.125000 0.507650
vt 0.857814 0.500000
vt 0.875000 0.500000
vt 0.640386 0.500000
vt 0.640386 0.507650
vt 0.359614 0.500000
vt 0.142186 0.742177
vt 0.640386 0.742177
vt 0.640386 0.750000
vt 0.359614 0.750000
vt 0.142186 0.750000
vt 0.625000 0.765386
vt 0.375000 0.765386
vt 0.375000 0.267186
vt 0.625000 0.267186
vt 0.375000 0.765386
vt 0.375000 0.750000
vt 0.125000 0.742177
vt 0.142186 0.742177
vt 0.125000 0.742177
vt 0.359614 0.742177
vt 0.375000 0.742177
vt 0.359614 0.750000
vt 0.359614 0.500000
vt 0.375000 0.500000
vt 0.375000 0.507650
vt 0.359614 0.507650
vt 0.142186 0.750000
vt 0.125000 0.750000
vt 0.125000 0.500000
vt 0.375000 0.267186
vt 0.375000 0.250000
vt 0.375000 1.000000
vt 0.375000 0.982814
vt 0.375000 0.484614
vt 0.375000 0.242349
vt 0.375000 0.007822
vt 0.375000 0.000000
vn -1.0000 0.0000 0.0000
vn 0.0000 0.0000 -1.0000
vn 1.0000 0.0000 0.0000
vn 0.0000 0.0000 1.0000
vn 0.0000 1.0000 0.0000
vn 0.0000 -1.0000 0.0000
s off
f 15/1/1 13/2/1 4/3/1 3/4/1
f 17/5/2 18/6/2 8/7/2 7/8/2
f 11/9/3 12/10/3 6/11/3 5/12/3
f 30/13/4 26/14/4 2/15/4 1/16/4
f 25/17/3 28/18/3 44/19/3 35/20/3
f 31/21/5 10/22/5 2/23/5 26/24/5
f 32/25/5 13/26/5 10/22/5 31/21/5
f 23/27/6 14/28/6 11/9/6 22/29/6
f 14/28/3 16/30/3 12/10/3 11/9/3
f 1/31/1 2/32/1 10/33/1 9/34/1
f 7/8/3 8/7/3 16/30/3 14/28/3
f 28/18/4 15/35/4 43/36/4 44/19/4
f 29/37/5 4/38/5 13/26/5 32/25/5
f 9/34/1 10/33/1 13/2/1 15/1/1
f 8/7/5 18/39/5 24/40/5 16/30/5
f 25/17/6 17/41/6 23/27/6 28/18/6
f 28/18/6 23/27/6 22/29/6 27/42/6
f 16/30/5 24/40/5 21/43/5 12/10/5
f 12/10/5 21/43/5 20/44/5 6/11/5
f 27/42/6 22/29/6 19/45/6 30/46/6
f 5/12/4 6/11/4 20/47/4 19/48/4
f 25/49/2 29/50/2 18/6/2 17/5/2
f 3/4/2 4/3/2 29/50/2 25/49/2
f 5/12/4 19/48/4 39/51/4 40/52/4
f 15/35/6 28/18/6 27/42/6 9/53/6
f 9/53/2 27/42/2 42/54/2 33/55/2
f 18/39/5 29/37/5 32/25/5 24/40/5
f 24/40/5 32/25/5 31/21/5 21/43/5
f 21/43/5 31/21/5 26/24/5 20/44/5
f 19/48/4 20/47/4 26/14/4 30/13/4
f 46/56/6 41/57/6 40/52/6 39/58/6
f 45/59/6 38/60/6 37/61/6 47/62/6
f 33/55/6 42/54/6 48/63/6 34/64/6
f 36/65/6 35/20/6 44/19/6 43/36/6
f 22/29/2 11/9/2 41/57/2 46/56/2
f 19/45/1 22/29/1 46/56/1 39/58/1
f 3/4/2 25/49/2 35/66/2 36/67/2
f 14/28/4 23/27/4 47/62/4 37/61/4
f 30/13/4 1/16/4 34/68/4 48/69/4
f 17/5/2 7/8/2 38/60/2 45/70/2
f 11/9/3 5/12/3 40/52/3 41/57/3
f 7/8/3 14/28/3 37/61/3 38/60/3
f 15/1/1 3/4/1 36/67/1 43/71/1
f 1/31/1 9/34/1 33/72/1 34/73/1
f 23/27/1 17/41/1 45/59/1 47/62/1
f 27/42/3 30/46/3 48/63/3 42/54/3
