# Blender v2.90.1 OBJ File: 'stuff.blend'
# www.blender.org
o Cube_Cube.005
v -1.000000 0.000000 1.000000
v -1.000000 2.000000 1.000000
v -1.000000 0.000000 -1.000000
v 1.000000 0.000000 1.000000
v 1.000000 2.000000 1.000000
v 1.000000 0.000000 -1.000000
v -1.000000 0.000000 -0.818182
v -1.000000 0.000000 -0.636364
v -1.000000 0.000000 -0.454545
v -1.000000 0.000000 -0.272727
v -1.000000 0.000000 -0.090909
v -1.000000 0.000000 0.090909
v -1.000000 0.000000 0.272727
v -1.000000 0.000000 0.454545
v -1.000000 0.000000 0.636364
v -1.000000 0.000000 0.818182
v -1.000000 2.000000 0.818182
v 1.000000 0.000000 0.818182
v 1.000000 0.000000 0.636364
v 1.000000 0.000000 0.454545
v 1.000000 0.000000 0.272727
v 1.000000 0.000000 0.090909
v 1.000000 0.000000 -0.090909
v 1.000000 0.000000 -0.272727
v 1.000000 0.000000 -0.454545
v 1.000000 0.000000 -0.636364
v 1.000000 0.000000 -0.818182
v 1.000000 2.000000 0.818182
v -1.000000 0.181818 1.000000
v -1.000000 0.363636 1.000000
v -1.000000 0.545455 1.000000
v -1.000000 0.727273 1.000000
v -1.000000 0.909091 1.000000
v -1.000000 1.090909 1.000000
v -1.000000 1.272727 1.000000
v -1.000000 1.454545 1.000000
v -1.000000 1.636364 1.000000
v -1.000000 1.818182 1.000000
v -1.000000 0.181818 -1.000000
v 1.000000 0.181818 -1.000000
v 1.000000 1.818182 1.000000
v 1.000000 1.636364 1.000000
v 1.000000 1.454545 1.000000
v 1.000000 1.272727 1.000000
v 1.000000 1.090909 1.000000
v 1.000000 0.909091 1.000000
v 1.000000 0.727273 1.000000
v 1.000000 0.545455 1.000000
v 1.000000 0.363636 1.000000
v 1.000000 0.181818 1.000000
v 1.000000 0.363636 -0.818182
v 1.000000 0.181818 -0.818182
v 1.000000 0.545455 -0.636364
v 1.000000 0.363636 -0.636364
v 1.000000 0.181818 -0.636364
v 1.000000 0.727273 -0.454545
v 1.000000 0.545455 -0.454545
v 1.000000 0.363636 -0.454545
v 1.000000 0.181818 -0.454545
v 1.000000 0.909091 -0.272727
v 1.000000 0.727273 -0.272727
v 1.000000 0.545455 -0.272727
v 1.000000 0.363636 -0.272727
v 1.000000 0.181818 -0.272727
v 1.000000 1.090909 -0.090909
v 1.000000 0.909091 -0.090909
v 1.000000 0.727273 -0.090909
v 1.000000 0.545455 -0.090909
v 1.000000 0.363636 -0.090909
v 1.000000 0.181818 -0.090909
v 1.000000 1.272727 0.090909
v 1.000000 1.090909 0.090909
v 1.000000 0.909091 0.090909
v 1.000000 0.727273 0.090909
v 1.000000 0.545455 0.090909
v 1.000000 0.363636 0.090909
v 1.000000 0.181818 0.090909
v 1.000000 1.454545 0.272727
v 1.000000 1.272727 0.272727
v 1.000000 1.090909 0.272727
v 1.000000 0.909091 0.272727
v 1.000000 0.727273 0.272727
v 1.000000 0.545455 0.272727
v 1.000000 0.363636 0.272727
v 1.000000 0.181818 0.272727
v 1.000000 1.636364 0.454545
v 1.000000 1.454545 0.454545
v 1.000000 1.272727 0.454545
v 1.000000 1.090909 0.454545
v 1.000000 0.909091 0.454545
v 1.000000 0.727273 0.454545
v 1.000000 0.545455 0.454545
v 1.000000 0.363636 0.454545
v 1.000000 0.181818 0.454545
v 1.000000 1.818182 0.636364
v 1.000000 1.636364 0.636364
v 1.000000 1.454545 0.636364
v 1.000000 1.272727 0.636364
v 1.000000 1.090909 0.636364
v 1.000000 0.909091 0.636364
v 1.000000 0.727273 0.636364
v 1.000000 0.545455 0.636364
v 1.000000 0.363636 0.636364
v 1.000000 0.181818 0.636364
v 1.000000 1.818182 0.818182
v 1.000000 1.636364 0.818182
v 1.000000 1.454545 0.818182
v 1.000000 1.272727 0.818182
v 1.000000 1.090909 0.818182
v 1.000000 0.909091 0.818182
v 1.000000 0.727273 0.818182
v 1.000000 0.545455 0.818182
v 1.000000 0.363636 0.818182
v 1.000000 0.181818 0.818182
v -1.000000 1.818182 0.818182
v -1.000000 1.636364 0.818182
v -1.000000 1.454545 0.818182
v -1.000000 1.272727 0.818182
v -1.000000 1.090909 0.818182
v -1.000000 0.909091 0.818182
v -1.000000 0.727273 0.818182
v -1.000000 0.545455 0.818182
v -1.000000 0.363636 0.818182
v -1.000000 0.181818 0.818182
v -1.000000 1.818182 0.636364
v -1.000000 1.636364 0.636364
v -1.000000 1.454545 0.636364
v -1.000000 1.272727 0.636364
v -1.000000 1.090909 0.636364
v -1.000000 0.909091 0.636364
v -1.000000 0.727273 0.636364
v -1.000000 0.545455 0.636364
v -1.000000 0.363636 0.636364
v -1.000000 0.181818 0.636364
v -1.000000 1.636364 0.454545
v -1.000000 1.454545 0.454545
v -1.000000 1.272727 0.454545
v -1.000000 1.090909 0.454545
v -1.000000 0.909091 0.454545
v -1.000000 0.727273 0.454545
v -1.000000 0.545455 0.454545
v -1.000000 0.363636 0.454545
v -1.000000 0.181818 0.454545
v -1.000000 1.454545 0.272727
v -1.000000 1.272727 0.272727
v -1.000000 1.090909 0.272727
v -1.000000 0.909091 0.272727
v -1.000000 0.727273 0.272727
v -1.000000 0.545455 0.272727
v -1.000000 0.363636 0.272727
v -1.000000 0.181818 0.272727
v -1.000000 1.272727 0.090909
v -1.000000 1.090909 0.090909
v -1.000000 0.909091 0.090909
v -1.000000 0.727273 0.090909
v -1.000000 0.545455 0.090909
v -1.000000 0.363636 0.090909
v -1.000000 0.181818 0.090909
v -1.000000 1.090909 -0.090909
v -1.000000 0.909091 -0.090909
v -1.000000 0.727273 -0.090909
v -1.000000 0.545455 -0.090909
v -1.000000 0.363636 -0.090909
v -1.000000 0.181818 -0.090909
v -1.000000 0.909091 -0.272727
v -1.000000 0.727273 -0.272727
v -1.000000 0.545455 -0.272727
v -1.000000 0.363636 -0.272727
v -1.000000 0.181818 -0.272727
v -1.000000 0.727273 -0.454545
v -1.000000 0.545455 -0.454545
v -1.000000 0.363636 -0.454545
v -1.000000 0.181818 -0.454545
v -1.000000 0.545455 -0.636364
v -1.000000 0.363636 -0.636364
v -1.000000 0.181818 -0.636364
v -1.000000 0.363636 -0.818182
v -1.000000 0.181818 -0.818182
vt 0.602273 0.727273
vt 0.625000 0.727273
vt 0.625000 0.750000
vt 0.602273 0.750000
vt 0.625000 1.000000
vt 0.602273 1.000000
vt 0.125000 0.727273
vt 0.375000 0.727273
vt 0.375000 0.750000
vt 0.125000 0.750000
vt 0.875000 0.727273
vt 0.875000 0.750000
vt 0.125000 0.500000
vt 0.375000 0.500000
vt 0.375000 0.522727
vt 0.125000 0.522727
vt 0.375000 0.545455
vt 0.125000 0.545455
vt 0.375000 0.568182
vt 0.125000 0.568182
vt 0.375000 0.590909
vt 0.125000 0.590909
vt 0.375000 0.613636
vt 0.125000 0.613636
vt 0.375000 0.636364
vt 0.125000 0.636364
vt 0.375000 0.659091
vt 0.125000 0.659091
vt 0.375000 0.681818
vt 0.125000 0.681818
vt 0.375000 0.704545
vt 0.125000 0.704545
vt 0.602273 0.000000
vt 0.625000 0.000000
vt 0.625000 0.022727
vt 0.602273 0.022727
vt 0.375000 0.204545
vt 0.397727 0.204545
vt 0.397727 0.227273
vt 0.375000 0.227273
vt 0.420455 0.204545
vt 0.420455 0.227273
vt 0.375000 0.181818
vt 0.397727 0.181818
vt 0.420455 0.181818
vt 0.443182 0.181818
vt 0.443182 0.204545
vt 0.375000 0.159091
vt 0.397727 0.159091
vt 0.420455 0.159091
vt 0.443182 0.159091
vt 0.465909 0.159091
vt 0.465909 0.181818
vt 0.375000 0.136364
vt 0.397727 0.136364
vt 0.420455 0.136364
vt 0.443182 0.136364
vt 0.465909 0.136364
vt 0.488636 0.136364
vt 0.488636 0.159091
vt 0.375000 0.113636
vt 0.397727 0.113636
vt 0.420455 0.113636
vt 0.443182 0.113636
vt 0.465909 0.113636
vt 0.488636 0.113636
vt 0.511364 0.113636
vt 0.511364 0.136364
vt 0.375000 0.090909
vt 0.397727 0.090909
vt 0.420455 0.090909
vt 0.443182 0.090909
vt 0.465909 0.090909
vt 0.488636 0.090909
vt 0.511364 0.090909
vt 0.534091 0.090909
vt 0.534091 0.113636
vt 0.375000 0.068182
vt 0.397727 0.068182
vt 0.420455 0.068182
vt 0.443182 0.068182
vt 0.465909 0.068182
vt 0.488636 0.068182
vt 0.511364 0.068182
vt 0.534091 0.068182
vt 0.556818 0.068182
vt 0.556818 0.090909
vt 0.375000 0.045455
vt 0.397727 0.045455
vt 0.420455 0.045455
vt 0.443182 0.045455
vt 0.465909 0.045455
vt 0.488636 0.045455
vt 0.511364 0.045455
vt 0.534091 0.045455
vt 0.556818 0.045455
vt 0.579545 0.045455
vt 0.579545 0.068182
vt 0.375000 0.022727
vt 0.397727 0.022727
vt 0.420455 0.022727
vt 0.443182 0.022727
vt 0.465909 0.022727
vt 0.488636 0.022727
vt 0.511364 0.022727
vt 0.534091 0.022727
vt 0.556818 0.022727
vt 0.579545 0.022727
vt 0.602273 0.045455
vt 0.375000 0.000000
vt 0.397727 0.000000
vt 0.420455 0.000000
vt 0.443182 0.000000
vt 0.465909 0.000000
vt 0.488636 0.000000
vt 0.511364 0.000000
vt 0.534091 0.000000
vt 0.556818 0.000000
vt 0.579545 0.000000
vt 0.397727 0.704545
vt 0.397727 0.727273
vt 0.420455 0.704545
vt 0.420455 0.727273
vt 0.443182 0.704545
vt 0.443182 0.727273
vt 0.465909 0.704545
vt 0.465909 0.727273
vt 0.488636 0.704545
vt 0.488636 0.727273
vt 0.511364 0.704545
vt 0.511364 0.727273
vt 0.534091 0.704545
vt 0.534091 0.727273
vt 0.556818 0.704545
vt 0.556818 0.727273
vt 0.579545 0.704545
vt 0.579545 0.727273
vt 0.602273 0.704545
vt 0.397727 0.681818
vt 0.420455 0.681818
vt 0.443182 0.681818
vt 0.465909 0.681818
vt 0.488636 0.681818
vt 0.511364 0.681818
vt 0.534091 0.681818
vt 0.556818 0.681818
vt 0.579545 0.681818
vt 0.397727 0.659091
vt 0.420455 0.659091
vt 0.443182 0.659091
vt 0.465909 0.659091
vt 0.488636 0.659091
vt 0.511364 0.659091
vt 0.534091 0.659091
vt 0.556818 0.659091
vt 0.397727 0.636364
vt 0.420455 0.636364
vt 0.443182 0.636364
vt 0.465909 0.636364
vt 0.488636 0.636364
vt 0.511364 0.636364
vt 0.534091 0.636364
vt 0.397727 0.613636
vt 0.420455 0.613636
vt 0.443182 0.613636
vt 0.465909 0.613636
vt 0.488636 0.613636
vt 0.511364 0.613636
vt 0.397727 0.590909
vt 0.420455 0.590909
vt 0.443182 0.590909
vt 0.465909 0.590909
vt 0.488636 0.590909
vt 0.397727 0.568182
vt 0.420455 0.568182
vt 0.443182 0.568182
vt 0.465909 0.568182
vt 0.397727 0.545455
vt 0.420455 0.545455
vt 0.443182 0.545455
vt 0.397727 0.522727
vt 0.420455 0.522727
vt 0.397727 0.500000
vt 0.397727 0.750000
vt 0.397727 1.000000
vt 0.375000 1.000000
vt 0.420455 0.750000
vt 0.420455 1.000000
vt 0.443182 0.750000
vt 0.443182 1.000000
vt 0.465909 0.750000
vt 0.465909 1.000000
vt 0.488636 0.750000
vt 0.488636 1.000000
vt 0.511364 0.750000
vt 0.511364 1.000000
vt 0.534091 0.750000
vt 0.534091 1.000000
vt 0.556818 0.750000
vt 0.556818 1.000000
vt 0.579545 0.750000
vt 0.579545 1.000000
vt 0.375000 0.250000
vt 0.397727 0.250000
vn 1.0000 0.0000 0.0000
vn 0.0000 0.0000 1.0000
vn 0.0000 -1.0000 0.0000
vn 0.0000 1.0000 0.0000
vn -1.0000 0.0000 0.0000
vn 0.0000 0.0000 -1.0000
s off
f 105/1/1 28/2/1 5/3/1 41/4/1
f 41/4/2 5/3/2 2/5/2 38/6/2
f 16/7/3 18/8/3 4/9/3 1/10/3
f 28/2/4 17/11/4 2/12/4 5/3/4
f 3/13/3 6/14/3 27/15/3 7/16/3
f 7/16/3 27/15/3 26/17/3 8/18/3
f 8/18/3 26/17/3 25/19/3 9/20/3
f 9/20/3 25/19/3 24/21/3 10/22/3
f 10/22/3 24/21/3 23/23/3 11/24/3
f 11/24/3 23/23/3 22/25/3 12/26/3
f 12/26/3 22/25/3 21/27/3 13/28/3
f 13/28/3 21/27/3 20/29/3 14/30/3
f 14/30/3 20/29/3 19/31/3 15/32/3
f 15/32/3 19/31/3 18/8/3 16/7/3
f 38/33/5 2/34/5 17/35/5 115/36/5
f 8/37/5 176/38/5 178/39/5 7/40/5
f 176/38/5 175/41/5 177/42/5 178/39/5
f 9/43/5 173/44/5 176/38/5 8/37/5
f 173/44/5 172/45/5 175/41/5 176/38/5
f 172/45/5 171/46/5 174/47/5 175/41/5
f 10/48/5 169/49/5 173/44/5 9/43/5
f 169/49/5 168/50/5 172/45/5 173/44/5
f 168/50/5 167/51/5 171/46/5 172/45/5
f 167/51/5 166/52/5 170/53/5 171/46/5
f 11/54/5 164/55/5 169/49/5 10/48/5
f 164/55/5 163/56/5 168/50/5 169/49/5
f 163/56/5 162/57/5 167/51/5 168/50/5
f 162/57/5 161/58/5 166/52/5 167/51/5
f 161/58/5 160/59/5 165/60/5 166/52/5
f 12/61/5 158/62/5 164/55/5 11/54/5
f 158/62/5 157/63/5 163/56/5 164/55/5
f 157/63/5 156/64/5 162/57/5 163/56/5
f 156/64/5 155/65/5 161/58/5 162/57/5
f 155/65/5 154/66/5 160/59/5 161/58/5
f 154/66/5 153/67/5 159/68/5 160/59/5
f 13/69/5 151/70/5 158/62/5 12/61/5
f 151/70/5 150/71/5 157/63/5 158/62/5
f 150/71/5 149/72/5 156/64/5 157/63/5
f 149/72/5 148/73/5 155/65/5 156/64/5
f 148/73/5 147/74/5 154/66/5 155/65/5
f 147/74/5 146/75/5 153/67/5 154/66/5
f 146/75/5 145/76/5 152/77/5 153/67/5
f 14/78/5 143/79/5 151/70/5 13/69/5
f 143/79/5 142/80/5 150/71/5 151/70/5
f 142/80/5 141/81/5 149/72/5 150/71/5
f 141/81/5 140/82/5 148/73/5 149/72/5
f 140/82/5 139/83/5 147/74/5 148/73/5
f 139/83/5 138/84/5 146/75/5 147/74/5
f 138/84/5 137/85/5 145/76/5 146/75/5
f 137/85/5 136/86/5 144/87/5 145/76/5
f 15/88/5 134/89/5 143/79/5 14/78/5
f 134/89/5 133/90/5 142/80/5 143/79/5
f 133/90/5 132/91/5 141/81/5 142/80/5
f 132/91/5 131/92/5 140/82/5 141/81/5
f 131/92/5 130/93/5 139/83/5 140/82/5
f 130/93/5 129/94/5 138/84/5 139/83/5
f 129/94/5 128/95/5 137/85/5 138/84/5
f 128/95/5 127/96/5 136/86/5 137/85/5
f 127/96/5 126/97/5 135/98/5 136/86/5
f 16/99/5 124/100/5 134/89/5 15/88/5
f 124/100/5 123/101/5 133/90/5 134/89/5
f 123/101/5 122/102/5 132/91/5 133/90/5
f 122/102/5 121/103/5 131/92/5 132/91/5
f 121/103/5 120/104/5 130/93/5 131/92/5
f 120/104/5 119/105/5 129/94/5 130/93/5
f 119/105/5 118/106/5 128/95/5 129/94/5
f 118/106/5 117/107/5 127/96/5 128/95/5
f 117/107/5 116/108/5 126/97/5 127/96/5
f 116/108/5 115/36/5 125/109/5 126/97/5
f 1/110/5 29/111/5 124/100/5 16/99/5
f 29/111/5 30/112/5 123/101/5 124/100/5
f 30/112/5 31/113/5 122/102/5 123/101/5
f 31/113/5 32/114/5 121/103/5 122/102/5
f 32/114/5 33/115/5 120/104/5 121/103/5
f 33/115/5 34/116/5 119/105/5 120/104/5
f 34/116/5 35/117/5 118/106/5 119/105/5
f 35/117/5 36/118/5 117/107/5 118/106/5
f 36/118/5 37/119/5 116/108/5 117/107/5
f 37/119/5 38/33/5 115/36/5 116/108/5
f 19/31/1 104/120/1 114/121/1 18/8/1
f 104/120/1 103/122/1 113/123/1 114/121/1
f 103/122/1 102/124/1 112/125/1 113/123/1
f 102/124/1 101/126/1 111/127/1 112/125/1
f 101/126/1 100/128/1 110/129/1 111/127/1
f 100/128/1 99/130/1 109/131/1 110/129/1
f 99/130/1 98/132/1 108/133/1 109/131/1
f 98/132/1 97/134/1 107/135/1 108/133/1
f 97/134/1 96/136/1 106/137/1 107/135/1
f 96/136/1 95/138/1 105/1/1 106/137/1
f 20/29/1 94/139/1 104/120/1 19/31/1
f 94/139/1 93/140/1 103/122/1 104/120/1
f 93/140/1 92/141/1 102/124/1 103/122/1
f 92/141/1 91/142/1 101/126/1 102/124/1
f 91/142/1 90/143/1 100/128/1 101/126/1
f 90/143/1 89/144/1 99/130/1 100/128/1
f 89/144/1 88/145/1 98/132/1 99/130/1
f 88/145/1 87/146/1 97/134/1 98/132/1
f 87/146/1 86/147/1 96/136/1 97/134/1
f 21/27/1 85/148/1 94/139/1 20/29/1
f 85/148/1 84/149/1 93/140/1 94/139/1
f 84/149/1 83/150/1 92/141/1 93/140/1
f 83/150/1 82/151/1 91/142/1 92/141/1
f 82/151/1 81/152/1 90/143/1 91/142/1
f 81/152/1 80/153/1 89/144/1 90/143/1
f 80/153/1 79/154/1 88/145/1 89/144/1
f 79/154/1 78/155/1 87/146/1 88/145/1
f 22/25/1 77/156/1 85/148/1 21/27/1
f 77/156/1 76/157/1 84/149/1 85/148/1
f 76/157/1 75/158/1 83/150/1 84/149/1
f 75/158/1 74/159/1 82/151/1 83/150/1
f 74/159/1 73/160/1 81/152/1 82/151/1
f 73/160/1 72/161/1 80/153/1 81/152/1
f 72/161/1 71/162/1 79/154/1 80/153/1
f 23/23/1 70/163/1 77/156/1 22/25/1
f 70/163/1 69/164/1 76/157/1 77/156/1
f 69/164/1 68/165/1 75/158/1 76/157/1
f 68/165/1 67/166/1 74/159/1 75/158/1
f 67/166/1 66/167/1 73/160/1 74/159/1
f 66/167/1 65/168/1 72/161/1 73/160/1
f 24/21/1 64/169/1 70/163/1 23/23/1
f 64/169/1 63/170/1 69/164/1 70/163/1
f 63/170/1 62/171/1 68/165/1 69/164/1
f 62/171/1 61/172/1 67/166/1 68/165/1
f 61/172/1 60/173/1 66/167/1 67/166/1
f 25/19/1 59/174/1 64/169/1 24/21/1
f 59/174/1 58/175/1 63/170/1 64/169/1
f 58/175/1 57/176/1 62/171/1 63/170/1
f 57/176/1 56/177/1 61/172/1 62/171/1
f 26/17/1 55/178/1 59/174/1 25/19/1
f 55/178/1 54/179/1 58/175/1 59/174/1
f 54/179/1 53/180/1 57/176/1 58/175/1
f 27/15/1 52/181/1 55/178/1 26/17/1
f 52/181/1 51/182/1 54/179/1 55/178/1
f 6/14/1 40/183/1 52/181/1 27/15/1
f 115/36/4 105/1/4 95/138/4 125/109/4
f 126/97/4 96/136/4 86/147/4 135/98/4
f 4/9/2 50/184/2 29/185/2 1/186/2
f 50/184/2 49/187/2 30/188/2 29/185/2
f 49/187/2 48/189/2 31/190/2 30/188/2
f 48/189/2 47/191/2 32/192/2 31/190/2
f 47/191/2 46/193/2 33/194/2 32/192/2
f 46/193/2 45/195/2 34/196/2 33/194/2
f 45/195/2 44/197/2 35/198/2 34/196/2
f 44/197/2 43/199/2 36/200/2 35/198/2
f 43/199/2 42/201/2 37/202/2 36/200/2
f 42/201/2 41/4/2 38/6/2 37/202/2
f 18/8/1 114/121/1 50/184/1 4/9/1
f 114/121/1 113/123/1 49/187/1 50/184/1
f 113/123/1 112/125/1 48/189/1 49/187/1
f 112/125/1 111/127/1 47/191/1 48/189/1
f 111/127/1 110/129/1 46/193/1 47/191/1
f 110/129/1 109/131/1 45/195/1 46/193/1
f 109/131/1 108/133/1 44/197/1 45/195/1
f 108/133/1 107/135/1 43/199/1 44/197/1
f 107/135/1 106/137/1 42/201/1 43/199/1
f 106/137/1 105/1/1 41/4/1 42/201/1
f 3/203/6 39/204/6 40/183/6 6/14/6
f 136/86/4 87/146/4 78/155/4 144/87/4
f 145/76/4 79/154/4 71/162/4 152/77/4
f 153/67/4 72/161/4 65/168/4 159/68/4
f 160/59/4 66/167/4 60/173/4 165/60/4
f 166/52/4 61/172/4 56/177/4 170/53/4
f 171/46/4 57/176/4 53/180/4 174/47/4
f 175/41/4 54/179/4 51/182/4 177/42/4
f 40/183/4 39/204/4 178/39/4 52/181/4
f 52/181/6 178/39/6 177/42/6 51/182/6
f 7/40/5 178/39/5 39/204/5 3/203/5
f 54/179/6 175/41/6 174/47/6 53/180/6
f 57/176/6 171/46/6 170/53/6 56/177/6
f 61/172/6 166/52/6 165/60/6 60/173/6
f 66/167/6 160/59/6 159/68/6 65/168/6
f 72/161/6 153/67/6 152/77/6 71/162/6
f 79/154/6 145/76/6 144/87/6 78/155/6
f 87/146/6 136/86/6 135/98/6 86/147/6
f 96/136/6 126/97/6 125/109/6 95/138/6
f 17/35/6 28/2/6 105/1/6 115/36/6
