# Blender v2.90.1 OBJ File: 'stuff.blend'
# www.blender.org
o WallCorner_Cube.004
v 0.000012 2.005964 -0.997541
v 0.000012 0.005964 -0.997541
v 0.000012 2.005964 1.002459
v 0.000012 0.005964 1.002459
v -0.255298 2.005964 -0.997541
v -0.255298 0.005964 -0.997541
v -0.255298 0.005964 1.255298
v 0.002459 2.005964 0.999988
v 0.002459 0.005964 0.999988
v 2.002459 2.005964 0.999988
v 2.002459 0.005964 0.999988
v -0.255298 2.005964 1.255298
v 2.002459 2.005964 1.255298
v 2.002459 0.005964 1.255298
vt 0.625000 0.500000
vt 0.875000 0.500000
vt 0.875000 0.750000
vt 0.625000 0.750000
vt 0.375000 0.750000
vt 0.625000 1.000000
vt 0.375000 1.000000
vt 0.375000 0.000000
vt 0.625000 0.000000
vt 0.625000 0.250000
vt 0.375000 0.250000
vt 0.125000 0.500000
vt 0.375000 0.500000
vt 0.125000 0.750000
vt 0.625000 0.500000
vt 0.875000 0.500000
vt 0.875000 0.750000
vt 0.625000 0.750000
vt 0.375000 0.750000
vt 0.625000 1.000000
vt 0.375000 1.000000
vt 0.375000 0.000000
vt 0.625000 0.000000
vt 0.625000 0.250000
vt 0.375000 0.250000
vt 0.125000 0.500000
vt 0.375000 0.500000
vt 0.125000 0.750000
vn 0.0000 1.0000 0.0000
vn 0.7037 0.0000 0.7105
vn -1.0000 0.0000 0.0000
vn 0.0000 -1.0000 0.0000
vn 1.0000 0.0000 0.0000
vn 0.0000 0.0000 -1.0000
vn 0.0000 0.0000 1.0000
vn -0.7037 0.0000 -0.7105
s off
f 1/1/1 5/2/1 12/3/1 3/4/1
f 4/5/2 3/4/2 12/6/2 7/7/2
f 7/8/3 12/9/3 5/10/3 6/11/3
f 6/12/4 2/13/4 4/5/4 7/14/4
f 2/13/5 1/1/5 3/4/5 4/5/5
f 6/11/6 5/10/6 1/1/6 2/13/6
f 8/15/1 12/16/1 13/17/1 10/18/1
f 11/19/5 10/18/5 13/20/5 14/21/5
f 14/22/7 13/23/7 12/24/7 7/25/7
f 7/26/4 9/27/4 11/19/4 14/28/4
f 9/27/6 8/15/6 10/18/6 11/19/6
f 7/25/8 12/24/8 8/15/8 9/27/8
